<svg xmlns="http://www.w3.org/2000/svg" version="1.1" xmlns:xlink="http://www.w3.org/1999/xlink" xmlns:svgjs="http://svgjs.dev/svgjs" width="100%" height="100%" viewBox="0 0 1000 600"><rect width="1000" height="600" x="0" y="0" fill="#ffa500"/><g><circle r="166.66666666666666" cx="436.72111002604163" cy="458.9432384502651" fill="#ffa500" transform="matrix(0.4628697816963073,0,0,0.46286978169630727,0,87.5690371505245)"/><path d="M376.8501605511806 400.1529688310211L376.8501605511806 400.1529688310211Q375.109115966936 412.9106231121236 375.109115966936 446.41072235379505L375.109115966936 446.41072235379505Q375.109115966936 500.65326655603553 376.3998904000828 513.8311729781626L376.3998904000828 513.8311729781626L376.8501605511806 518.3638924992131Q377.2704126922051 522.2662338087268 380.9626279312065 523.8872063526787Q384.6248251601348 525.5081788966305 395.22118271596815 527.6694756218997L395.22118271596815 527.6694756218997L394.5607864943581 533.9432397271947Q380.9626279312065 533.2828435055848 364.96302856220035 533.2828435055848Q348.9634291931942 533.2828435055848 335.33525261996937 533.9432397271947L335.33525261996937 533.9432397271947L334.70487440843254 527.6694756218997Q345.7214841052905 525.5081788966305 349.6238254148042 523.7671343123859Q353.49614871424467 522.0561077382146 353.9464188653424 518.3638924992131L353.9464188653424 518.3638924992131Q355.6574454395138 505.6062382181106 355.6574454395138 472.1061389764391L355.6574454395138 472.1061389764391Q355.6574454395138 417.86359477419865 354.366671006367 404.47556228155935L354.366671006367 404.47556228155935L353.9464188653424 400.1529688310211Q353.49614871424467 396.2506275215074 350.0440775558287 394.62965497755556Q346.5920063974128 393.00868243360367 336.20577491209167 390.8473857083345L336.20577491209167 390.8473857083345L336.8661711337017 384.57362160303944Q350.46432969685327 385.23401782464947 365.3832807032249 385.23401782464947Q380.3022317095965 385.23401782464947 393.9304082828213 384.57362160303944L393.9304082828213 384.57362160303944L394.5607864943581 390.8473857083345Q384.2045730191102 393.00868243360367 380.7224838506211 394.62965497755556Q377.2704126922051 396.2506275215074 376.8501605511806 400.1529688310211ZM407.31844077546066 387.1851884794063L407.31844077546066 383.9432433915026Q425.0290667186382 385.23401782464947 471.7370903925099 385.23401782464947Q518.4150960563085 385.23401782464947 536.1257219994861 383.9432433915026L536.1257219994861 383.9432433915026L536.1257219994861 387.1851884794063Q536.1257219994861 404.2654362110471 538.737288875853 418.9442431368332L538.737288875853 418.9442431368332L532.8837769115823 421.5558100132001Q527.2704090278972 403.8151660599493 519.495744418943 399.0723204683865Q511.7210798099888 394.2994568667505 490.1081125572975 394.2994568667505L490.1081125572975 394.2994568667505Q483.62422238149014 394.2994568667505 482.9638261598801 400.1529688310211L482.9638261598801 400.1529688310211Q481.2227815756355 412.9106231121236 481.2227815756355 446.41072235379505L481.2227815756355 446.41072235379505Q481.2227815756355 500.65326655603553 482.54357401885557 513.8311729781626L482.54357401885557 513.8311729781626L482.9638261598801 518.3638924992131Q483.38407830090466 522.2662338087268 487.0762935399061 523.8872063526787Q490.73849076883437 525.5081788966305 501.33484832466775 527.6694756218997L501.33484832466775 527.6694756218997L500.67445210305766 533.9432397271947Q487.0762935399061 533.2828435055848 471.07669417089994 533.2828435055848Q455.07709480189374 533.2828435055848 441.4789362387421 533.9432397271947L441.4789362387421 533.9432397271947L440.81854001713214 527.6694756218997Q451.83514971399006 525.5081788966305 455.7374910235037 523.7671343123859Q459.60981432294426 522.0561077382146 460.060084474042 518.3638924992131L460.060084474042 518.3638924992131Q461.77111104821336 505.6062382181106 461.77111104821336 472.1061389764391L461.77111104821336 472.1061389764391Q461.77111104821336 417.86359477419865 460.48033661506656 404.47556228155935L460.48033661506656 404.47556228155935L460.060084474042 400.1529688310211Q459.399688252432 394.2994568667505 453.36606822772234 394.2994568667505L453.36606822772234 394.2994568667505Q431.7531009750311 394.2994568667505 423.94841835600363 399.0723204683865Q416.17375374704943 403.8151660599493 410.56038586336433 421.5558100132001L410.56038586336433 421.5558100132001L404.73689190916696 418.9442431368332Q407.31844077546066 404.2654362110471 407.31844077546066 387.1851884794063L407.31844077546066 387.1851884794063Z " fill="&#9;#FFFFFF" transform="matrix(0.4628697816963073,0,0,0.46286978169630727,0,87.5690371505245)"/><path d="M762.9752645951053 523.5556717520458L762.9752645951053 523.5556717520458Q782.953623112094 523.5556717520458 795.7019995956081 515.3518554038584Q808.4503760791223 507.1775491864199 812.6998349069603 493.1602370807041L812.6998349069603 493.1602370807041L818.454310402991 495.6981083251074Q816.093499943081 503.370742319815 813.5556286986778 524.1753844977721L813.5556286986778 524.1753844977721Q787.409652855174 533.9432377756499 762.3555518493789 533.9432377756499L762.3555518493789 533.9432377756499Q727.504087434957 533.9432377756499 707.1125870874841 514.9387135733741Q686.7210867400113 495.9341893710984 686.7210867400113 462.14508966363604Q686.7210867400113 428.3559899561737 706.9060161722421 406.1643716330194Q727.0909456044728 383.9432431791162 762.1489809341367 383.9432431791162L762.1489809341367 383.9432431791162Q771.9168342120145 383.9432431791162 784.0159878190534 385.5367902395555Q796.1446515568413 387.1303372999948 800.6006812999215 387.1303372999948Q805.0567110430015 387.1303372999948 810.161963662557 385.86140167779314L810.161963662557 385.86140167779314L810.161963662557 389.04849579867164Q810.161963662557 404.57082457258014 812.6998349069603 419.0012785087802L812.6998349069603 419.0012785087802L806.9748695416785 421.56865988393236Q798.4759518860023 393.711096456994 761.9128998881458 393.711096456994L761.9128998881458 393.711096456994Q740.6656057489554 393.711096456994 725.379358021038 408.8202834004182L725.379358021038 408.8202834004182Q717.7362341570793 416.2568363491348 713.3687348062457 428.5625608714158Q709.030745586161 440.89779552444577 709.030745586161 455.0331481531571Q709.030745586161 469.1389906511195 711.9817586610486 480.61843151243204Q714.962281866685 492.0978723737446 721.1298991931999 501.86572565162237Q727.2975165197149 511.6335789295001 738.1277345045521 517.594625340773Q748.9579524893894 523.5556717520458 762.9752645951053 523.5556717520458ZM887.0653643941264 486.786048838947Q869.6543872522899 487.19919066943123 860.5062467201385 493.36680799594626Q851.3876163187359 499.5344253224612 851.3876163187359 506.76440735593565Q851.3876163187359 513.9943893894101 855.1058927930943 517.2700139025353Q858.8241692674526 520.5751485464093 867.0870058771377 520.5751485464093Q875.3793526175717 520.5751485464093 887.0653643941264 513.551737428177L887.0653643941264 513.551737428177L887.0653643941264 486.786048838947ZM902.5876931680348 533.3235250299235L902.5876931680348 533.3235250299235Q889.8393166845207 533.3235250299235 887.7145872706016 519.5127838394499L887.7145872706016 519.5127838394499Q869.0051643758146 533.3235250299235 855.400994100583 533.3235250299235L855.400994100583 533.3235250299235Q846.2823636991806 533.3235250299235 839.9081754574235 527.6870900568883Q833.5339872156663 522.0506550838531 833.5339872156663 510.15807239205634Q833.5339872156663 498.26548970025954 846.164323176185 488.7042073376239Q858.8241692674526 479.1429249749883 887.0653643941264 477.2247664763114L887.0653643941264 477.2247664763114L887.0653643941264 457.45297887456485Q887.0653643941264 451.5214425940409 882.7273751740416 448.3343484731624Q878.3598758232081 445.1472543522838 870.5101810440073 445.1472543522838Q862.6309761340575 445.1472543522838 857.9683754757352 449.4852435723685Q853.276264686664 453.8527429232021 853.276264686664 460.6400729954434L853.276264686664 460.6400729954434Q853.276264686664 463.20745437059554 853.9254875631393 466.3945484914741L853.9254875631393 466.3945484914741L849.2628869048169 468.51927790539315Q845.0134280769789 466.187977576232 841.2951516026205 462.14508966363604Q837.5768751282623 458.1022017510401 837.5768751282623 456.3020837753587Q837.5768751282623 454.50196579967735 840.4393578109032 450.99026024056116Q843.3018404935441 447.47855468144496 848.2005221978575 443.43566676884905Q853.0696937714218 439.39277885625313 861.2439999888604 436.5302961736122Q869.4478163370477 433.6678134909713 879.6288114454097 433.6678134909713Q889.8393166845207 433.6678134909713 896.2135049262778 438.6550255875312Q902.5876931680348 443.6422376840912 902.5876931680348 456.715225605843Q902.5876931680348 469.7882135275948 903.8566287902365 511.8696599754911L903.8566287902365 511.8696599754911Q904.0631997054786 522.0506550838531 911.4997526541952 522.0506550838531L911.4997526541952 522.0506550838531Q914.6868467750737 522.0506550838531 918.0805118111944 520.3685776311672L918.0805118111944 520.3685776311672L920.2052412251135 525.886972081207Q912.1489755306704 533.3235250299235 902.5876931680348 533.3235250299235ZM990.1147409691993 432.39887786876966L990.1147409691993 432.39887786876966Q991.8263285526341 432.39887786876966 995.7511759422345 437.3860899653296Q999.6760233318348 442.37330206188955 1000.9449589540366 447.2719837662028L1000.9449589540366 447.2719837662028L997.757864833158 451.3148716787988Q990.1147409691993 448.3343484731624 981.8223942287652 448.3343484731624Q973.5595576190801 448.3343484731624 966.7427174160899 455.2397190683992Q959.9553873438485 462.14508966363604 959.9553873438485 477.4313373915535L959.9553873438485 477.4313373915535Q960.1619582590907 514.8206730503787 961.8735458425256 520.9882903768936L961.8735458425256 520.9882903768936Q962.0801167577677 522.6998779603284 967.9231226460449 524.0868541055255Q973.7661285343223 525.4443201199738 980.1403167760793 525.886972081207L980.1403167760793 525.886972081207L979.491093899604 532.0545894077219Q969.3100987912421 531.4053665312466 953.6697294943381 531.4053665312466Q938.058870328183 531.4053665312466 927.877875219821 532.0545894077219L927.877875219821 532.0545894077219L928.4975879655474 525.886972081207Q932.7470467933855 525.4443201199738 937.4391575824567 524.0868541055255Q942.101758240779 522.6998779603284 942.308329156021 521.1948612921358L942.308329156021 521.1948612921358Q944.0199167394559 513.7583083434191 944.0199167394559 491.44864949726934L944.0199167394559 491.44864949726934Q944.0199167394559 455.32824946064585 942.308329156021 447.2719837662028L942.308329156021 447.2719837662028L928.7041588807895 443.2290958536069L928.2910170503053 437.7107014035672Q941.8951873255369 437.7107014035672 956.3256412617369 433.87438440621344L956.3256412617369 433.87438440621344L960.3685291743329 435.7925429048903Q959.9553873438485 438.97963702576885 959.9553873438485 453.2035200467268L959.9553873438485 453.2035200467268Q966.1230046703636 443.02252493836477 975.5662465100037 437.7107014035672Q985.0094883496438 432.39887786876966 990.1147409691993 432.39887786876966ZM1068.9363001994454 463.4140252858377L1068.9363001994454 463.4140252858377Q1068.9363001994454 453.64617200795993 1063.4179057494057 448.86553082664216Q1057.8995112993662 444.0848896453243 1051.1121812271247 444.0848896453243L1051.1121812271247 444.0848896453243Q1041.108246903256 444.0848896453243 1033.8782648697816 451.93458442452516Q1026.677792967056 459.8137893344749 1024.316982507146 471.26372006503857L1024.316982507146 471.26372006503857L1068.3165874537192 469.58164261235265Q1068.9363001994454 466.3945484914741 1068.9363001994454 463.4140252858377ZM1050.4629583506494 533.3235250299235L1050.4629583506494 533.3235250299235Q1027.9467285892576 533.3235250299235 1016.467287727945 520.4571080234139Q1004.9878468666325 507.62020114765306 1004.9878468666325 486.25486648546723Q1004.9878468666325 464.88953182328146 1017.6476929579 449.2786726571264Q1030.2780289184186 433.6678134909713 1055.774781885447 433.6678134909713L1055.774781885447 433.6678134909713Q1068.7297292842034 433.6678134909713 1078.4090521698345 442.8159540231227Q1088.0588649247168 451.93458442452516 1088.0588649247168 469.99478444283693L1088.0588649247168 469.99478444283693L1080.858393021991 478.7002730137551Q1079.5599472690405 478.49370209851304 1060.761993982007 478.49370209851304Q1041.9640406949734 478.49370209851304 1023.0480468849441 479.9987187667057L1023.0480468849441 479.9987187667057L1023.0480468849441 481.8873671346337Q1023.0480468849441 501.24601290589595 1031.133822710136 510.8958256607782Q1039.190088404579 520.5751485464093 1053.2369106410438 520.5751485464093Q1067.2542227467595 520.5751485464093 1082.747041389919 513.7583083434191L1082.747041389919 513.7583083434191L1085.3144227650714 520.1324965851762Q1068.9363001994454 533.3235250299235 1050.4629583506494 533.3235250299235ZM1166.4672823244787 463.4140252858377L1166.4672823244787 463.4140252858377Q1166.4672823244787 453.64617200795993 1160.948887874439 448.86553082664216Q1155.4304934243992 444.0848896453243 1148.613653221409 444.0848896453243L1148.613653221409 444.0848896453243Q1138.6392290282893 444.0848896453243 1131.4092469948148 451.93458442452516Q1124.1792649613403 459.8137893344749 1121.8479646321791 471.26372006503857L1121.8479646321791 471.26372006503857L1165.8475695787524 469.58164261235265Q1166.4672823244787 466.3945484914741 1166.4672823244787 463.4140252858377ZM1147.9939404756828 533.3235250299235L1147.9939404756828 533.3235250299235Q1125.4777107142907 533.3235250299235 1113.9982698529782 520.4571080234139Q1102.5188289916657 507.62020114765306 1102.5188289916657 486.25486648546723Q1102.5188289916657 464.88953182328146 1115.1491649521843 449.2786726571264Q1127.8090110434518 433.6678134909713 1153.3057640104803 433.6678134909713L1153.3057640104803 433.6678134909713Q1166.2607114092366 433.6678134909713 1175.9400342948677 442.8159540231227Q1185.58984704975 451.93458442452516 1185.58984704975 469.99478444283693L1185.58984704975 469.99478444283693L1178.3598650162755 478.7002730137551Q1177.0909293940738 478.49370209851304 1158.2929761070402 478.49370209851304Q1139.4950228200064 478.49370209851304 1120.5790290099774 479.9987187667057L1120.5790290099774 479.9987187667057L1120.5790290099774 481.8873671346337Q1120.5790290099774 501.24601290589595 1128.6648048351692 510.8958256607782Q1136.7210705296122 520.5751485464093 1150.738382635328 520.5751485464093Q1164.7852048717928 520.5751485464093 1180.2780235149523 513.7583083434191L1180.2780235149523 513.7583083434191L1182.8454048901046 520.1324965851762Q1166.4672823244787 533.3235250299235 1147.9939404756828 533.3235250299235ZM1259.955376536916 432.39887786876966L1259.955376536916 432.39887786876966Q1261.6669641203507 432.39887786876966 1265.5918115099512 437.3860899653296Q1269.5166588995517 442.37330206188955 1270.7855945217532 447.2719837662028L1270.7855945217532 447.2719837662028L1267.5985004008749 451.3148716787988Q1259.955376536916 448.3343484731624 1251.663029796482 448.3343484731624Q1243.400193186797 448.3343484731624 1236.5833529838067 455.2397190683992Q1229.7960229115654 462.14508966363604 1229.7960229115654 477.4313373915535L1229.7960229115654 477.4313373915535Q1230.0025938268075 514.8206730503787 1231.7141814102422 520.9882903768936L1231.7141814102422 520.9882903768936Q1231.9207523254845 522.6998779603284 1237.7637582137618 524.0868541055255Q1243.606764102039 525.4443201199738 1249.9809523437962 525.886972081207L1249.9809523437962 525.886972081207L1249.3317294673209 532.0545894077219Q1239.1507343589587 531.4053665312466 1223.510365062055 531.4053665312466Q1207.8995058959 531.4053665312466 1197.7185107875378 532.0545894077219L1197.7185107875378 532.0545894077219L1198.3382235332642 525.886972081207Q1202.5876823611022 525.4443201199738 1207.2797931501734 524.0868541055255Q1211.9423938084956 522.6998779603284 1212.1489647237377 521.1948612921358L1212.1489647237377 521.1948612921358Q1213.8605523071726 513.7583083434191 1213.8605523071726 491.44864949726934L1213.8605523071726 491.44864949726934Q1213.8605523071726 455.32824946064585 1212.1489647237377 447.2719837662028L1212.1489647237377 447.2719837662028L1198.5447944485063 443.2290958536069L1198.1316526180221 437.7107014035672Q1211.7358228932535 437.7107014035672 1226.1662768294536 433.87438440621344L1226.1662768294536 433.87438440621344L1230.2091647420496 435.7925429048903Q1229.7960229115654 438.97963702576885 1229.7960229115654 453.2035200467268L1229.7960229115654 453.2035200467268Q1235.9636402380802 443.02252493836477 1245.4068820777204 437.7107014035672Q1254.8501239173606 432.39887786876966 1259.955376536916 432.39887786876966ZM1299.4694416096602 386.27454350827736L1299.4694416096602 386.27454350827736L1292.682111537419 435.5859719896482Q1292.8886824526608 438.3304141492936 1284.1831938817427 438.3304141492936L1284.1831938817427 438.3304141492936L1279.9337350539045 391.37979612783283Q1280.1403059691468 390.7600833821065 1280.8780592378687 389.90428959038906Q1281.6453226373394 389.04849579867164 1286.5144942109039 387.66151965347456Q1291.4131759152172 386.27454350827736 1299.4694416096602 386.27454350827736ZM1370.4413060607055 437.5041304883251L1370.4413060607055 437.5041304883251L1373.421829266342 438.97963702576885Q1373.421829266342 452.7903782162426 1374.6907648885435 460.02036024971704L1374.6907648885435 460.02036024971704L1369.1723704385038 461.9385187483939Q1366.3984181481096 451.0787906328078 1361.4112060515497 446.82933180496974Q1356.4239939549896 442.5798729771317 1348.780870091031 442.5798729771317Q1341.1377462270723 442.5798729771317 1336.6522063532432 446.6227608897276Q1332.1961766101629 450.6656488023235 1332.1961766101629 456.18404325236327L1332.1961766101629 456.18404325236327Q1332.1961766101629 465.7453256149989 1343.2624756409912 471.91294294151385L1343.2624756409912 471.91294294151385L1364.9229116106658 483.8055256333106Q1378.9402237163815 491.68473054326034 1378.9402237163815 506.55783644069356L1378.9402237163815 506.55783644069356Q1378.9402237163815 517.3880544255308 1370.352775668459 525.3557897277271Q1361.7358174897872 533.3235250299235 1345.8003468853947 533.3235250299235Q1329.864876281002 533.3235250299235 1313.0736118848915 528.011701495126L1313.0736118848915 528.011701495126Q1315.6409932600438 513.1385955976928 1315.6409932600438 503.5773132350571L1315.6409932600438 503.5773132350571L1321.1593877100836 501.65915473638023Q1323.0775462087606 509.3022786003389 1324.0218703927244 512.0762308907332Q1324.9661945766886 514.8206730503787 1327.4155354288453 518.8635609629746Q1329.864876281002 522.9064488755705 1333.7011932783555 524.1753844977721Q1337.5080001449605 525.4443201199738 1344.944553093677 525.4443201199738Q1352.3811060423939 525.4443201199738 1357.2797877467071 521.1948612921358Q1362.1489593202716 516.9454024642977 1362.1489593202716 511.01386618377376L1362.1489593202716 511.01386618377376Q1362.1489593202716 502.07229656686445 1352.1745351271518 496.55390211682476L1352.1745351271518 496.55390211682476L1329.2156534045266 483.8055256333106Q1315.1983412988109 476.368972684594 1315.1983412988109 461.08272495667654L1315.1983412988109 461.08272495667654Q1315.1983412988109 450.25250697183924 1323.4906880392448 441.96016023140527Q1331.7830347796787 433.6678134909713 1346.6561406771118 433.6678134909713Q1361.529246574545 433.6678134909713 1370.4413060607055 437.5041304883251ZM1486.4456300345346 400.5279366599842L1486.4456300345346 400.5279366599842Q1484.763552581849 413.06974222825625 1484.763552581849 446.00304814400124L1484.763552581849 446.00304814400124Q1484.763552581849 499.3278544072191 1486.0324882040504 512.2828018059754L1486.0324882040504 512.2828018059754L1486.4456300345346 516.7388315490556Q1486.8882819957678 520.5751485464093 1490.4885179471305 522.1686956068486Q1494.1182640292423 523.7622426672879 1504.5058300528465 525.886972081207L1504.5058300528465 525.886972081207L1503.88611730712 532.0545894077219Q1490.4885179471305 531.4053665312466 1474.75961825798 531.4053665312466Q1459.0602286995784 531.4053665312466 1445.6626293395886 532.0545894077219L1445.6626293395886 532.0545894077219L1445.0134064631136 525.886972081207Q1455.8731345786998 523.7622426672879 1459.6799414453046 522.0506550838531Q1463.5162584426585 520.3685776311672 1463.9294002731428 516.7388315490556L1463.9294002731428 516.7388315490556Q1465.6409878565776 504.1970259807835 1465.6409878565776 471.26372006503857L1465.6409878565776 471.26372006503857Q1465.6409878565776 417.9389138018207 1464.3720522343758 404.7773954878223L1464.3720522343758 404.7773954878223L1463.9294002731428 400.5279366599842Q1463.5162584426585 396.6916196626304 1460.1225934065378 395.0980726021911Q1456.6994182396681 393.5045255417519 1446.5184231313062 391.37979612783283L1446.5184231313062 391.37979612783283L1447.1381358770325 385.2121788013179Q1460.5357352370222 385.86140167779314 1475.2022702192132 385.86140167779314Q1489.8688052014043 385.86140167779314 1503.2368944306447 385.2121788013179L1503.2368944306447 385.2121788013179L1503.88611730712 391.37979612783283Q1493.6756120680093 393.5045255417519 1490.2819470318884 395.0980726021911Q1486.8882819957678 396.6916196626304 1486.4456300345346 400.5279366599842ZM1548.2988640841777 453.4396010927178L1548.2988640841777 453.4396010927178L1548.0627830381866 482.7431609263511Q1548.0627830381866 510.15807239205634 1549.7743706216213 518.4504191324903L1549.7743706216213 518.4504191324903L1550.1875124521055 521.1948612921358Q1550.4235934980966 522.6998779603284 1554.9681536334235 524.0868541055255Q1559.542223899499 525.4443201199738 1563.7916827273373 525.886972081207L1563.7916827273373 525.886972081207L1563.1719699816106 532.0545894077219Q1552.9614647424999 531.4053665312466 1539.7999464285015 531.4053665312466Q1526.6089179837543 531.4053665312466 1516.4279228753921 532.0545894077219L1516.4279228753921 532.0545894077219L1517.0476356211184 525.886972081207Q1521.0905235337145 525.4443201199738 1525.6645937997903 524.0868541055255Q1530.2386640658658 522.6998779603284 1530.445234981108 521.1948612921358L1530.445234981108 521.1948612921358Q1532.1273124337938 513.7583083434191 1532.1273124337938 491.44864949726934L1532.1273124337938 491.44864949726934Q1532.1273124337938 455.32824946064585 1530.445234981108 447.2719837662028L1530.445234981108 447.2719837662028L1516.8410647058765 443.2290958536069L1516.4279228753921 437.7107014035672Q1530.002583019875 437.7107014035672 1544.4625470868239 433.87438440621344L1544.4625470868239 433.87438440621344L1548.5054349994195 435.7925429048903L1548.5054349994195 446.00304814400124Q1572.0840294677712 433.6678134909713 1589.4950066096076 433.6678134909713L1589.4950066096076 433.6678134909713Q1600.1186536792027 433.6678134909713 1605.6665582599915 437.91727231880935Q1611.184952710031 442.1667311466474 1611.184952710031 453.8527429232021L1611.184952710031 453.8527429232021L1611.184952710031 482.7431609263511Q1611.184952710031 510.15807239205634 1612.6604592474748 518.4504191324903L1612.6604592474748 518.4504191324903L1613.3096821239499 521.1948612921358Q1613.5162530391922 522.6998779603284 1618.090323305268 524.0868541055255Q1622.6643935713437 525.4443201199738 1626.9138523991817 525.886972081207L1626.9138523991817 525.886972081207L1626.2646295227062 532.0545894077219Q1616.0541242835955 531.4053665312466 1602.892605969597 531.4053665312466Q1589.7310876555987 531.4053665312466 1579.5205824164877 532.0545894077219L1579.5205824164877 532.0545894077219L1580.169805292963 525.886972081207Q1584.18318307481 525.4443201199738 1588.7572533408859 524.0868541055255Q1593.3313236069614 522.6998779603284 1593.5378945222035 521.1948612921358L1593.5378945222035 521.1948612921358Q1595.2494821056382 513.7583083434191 1595.2494821056382 482.7431609263511L1595.2494821056382 482.7431609263511L1595.2494821056382 462.14508966363604Q1595.2494821056382 453.8527429232021 1590.350800401325 450.6656488023235Q1585.4816288277605 447.47855468144496 1573.795617051206 447.47855468144496Q1562.1096052746514 447.47855468144496 1548.2988640841777 453.4396010927178ZM1731.2321645964564 400.5279366599842L1731.2321645964564 400.5279366599842Q1729.5205770130212 413.06974222825625 1729.5205770130212 446.00304814400124L1729.5205770130212 446.00304814400124Q1729.5205770130212 499.3278544072191 1730.789512635223 512.2828018059754L1730.789512635223 512.2828018059754L1731.2321645964564 516.7388315490556Q1731.6453064269406 520.5751485464093 1735.275052509052 522.1686956068486Q1738.8752884604148 523.7622426672879 1749.292364614768 525.886972081207L1749.292364614768 525.886972081207L1748.6431417382926 532.0545894077219Q1735.275052509052 531.4053665312466 1719.5461528199014 531.4053665312466Q1703.817253130751 531.4053665312466 1690.4196537707614 532.0545894077219L1690.4196537707614 532.0545894077219L1689.7999410250352 525.886972081207Q1700.6301590098726 523.7622426672879 1704.4664760072262 522.0506550838531Q1708.273282873831 520.3685776311672 1708.715934835064 516.7388315490556L1708.715934835064 516.7388315490556Q1710.3980122877504 504.1970259807835 1710.3980122877504 471.26372006503857L1710.3980122877504 471.26372006503857Q1710.3980122877504 417.9389138018207 1709.1290766655486 404.7773954878223L1709.1290766655486 404.7773954878223L1708.715934835064 400.5279366599842Q1708.273282873831 396.6916196626304 1704.8796178377106 395.0980726021911Q1701.4859528015897 393.5045255417519 1691.275447562479 391.37979612783283L1691.275447562479 391.37979612783283L1691.924670438954 385.2121788013179Q1705.2927596681945 385.86140167779314 1719.959294650386 385.86140167779314Q1734.625829632577 385.86140167779314 1748.0234289925663 385.2121788013179L1748.0234289925663 385.2121788013179L1748.6431417382926 391.37979612783283Q1738.4621466299307 393.5045255417519 1735.0389714630612 395.0980726021911Q1731.6453064269406 396.6916196626304 1731.2321645964564 400.5279366599842ZM1761.1849473065647 387.77956017647L1761.1849473065647 384.5924660555915Q1778.5959244484013 385.86140167779314 1824.5136878936512 385.86140167779314Q1870.4019412081527 385.86140167779314 1887.8129183499893 384.5924660555915L1887.8129183499893 384.5924660555915L1887.8129183499893 387.77956017647Q1887.8129183499893 404.57082457258014 1890.3802997251412 419.0012785087802L1890.3802997251412 419.0012785087802L1884.6258242291103 421.56865988393236Q1879.1074297790708 404.128172611347 1871.464305915112 399.46557195302466Q1863.8211820511535 394.7734611639535 1842.5738879119633 394.7734611639535L1842.5738879119633 394.7734611639535Q1836.1996996702062 394.7734611639535 1835.5504767937307 400.5279366599842L1835.5504767937307 400.5279366599842Q1833.838889210296 413.06974222825625 1833.838889210296 446.00304814400124L1833.838889210296 446.00304814400124Q1833.838889210296 499.3278544072191 1835.1373349632465 512.2828018059754L1835.1373349632465 512.2828018059754L1835.5504767937307 516.7388315490556Q1835.9636186242149 520.5751485464093 1839.5933647063268 522.1686956068486Q1843.1936006576896 523.7622426672879 1853.6106768120424 525.886972081207L1853.6106768120424 525.886972081207L1852.9614539355673 532.0545894077219Q1839.5933647063268 531.4053665312466 1823.8644650171761 531.4053665312466Q1808.1355653280255 531.4053665312466 1794.767476098785 532.0545894077219L1794.767476098785 532.0545894077219L1794.11825322231 525.886972081207Q1804.948471207147 523.7622426672879 1808.7847882045005 522.0506550838531Q1812.5915950711058 520.3685776311672 1813.0342470323387 516.7388315490556L1813.0342470323387 516.7388315490556Q1814.7163244850246 504.1970259807835 1814.7163244850246 471.26372006503857L1814.7163244850246 471.26372006503857Q1814.7163244850246 417.9389138018207 1813.447388862823 404.7773954878223L1813.447388862823 404.7773954878223L1813.0342470323387 400.5279366599842Q1812.3850241558637 394.7734611639535 1806.4534878753395 394.7734611639535L1806.4534878753395 394.7734611639535Q1785.2061937361493 394.7734611639535 1777.5335597414416 399.46557195302466Q1769.8904358774828 404.128172611347 1764.3720414274433 421.56865988393236L1764.3720414274433 421.56865988393236L1758.6470760621612 419.0012785087802Q1761.1849473065647 404.57082457258014 1761.1849473065647 387.77956017647L1761.1849473065647 387.77956017647Z " fill="#ffffff" transform="matrix(0.4628697816963073,0,0,0.46286978169630727,0,87.5690371505245)"/></g></svg>